<?xml version="1.0" encoding="utf-8"?>
<!-- Generator: Adobe Illustrator 24.3.0, SVG Export Plug-In . SVG Version: 6.00 Build 0)  -->
<svg version="1.1" id="Warstwa_1" xmlns="http://www.w3.org/2000/svg" xmlns:xlink="http://www.w3.org/1999/xlink" x="0px" y="0px"
	 viewBox="0 0 26.9 34.2" style="enable-background:new 0 0 26.9 34.2;" xml:space="preserve">
<style type="text/css">
	.st0{fill:#5758A3;}
</style>
<g id="overflowing-stacked-papers-tray">
	<g id="Group_18">
		<path id="Path_292" class="st0" d="M5.2,29.7H17c0.6,0,1-0.4,1-1v-1.2c0-0.6-0.4-1-1-1H5.2c-0.6,0-1,0.4-1,1v1.3
			C4.2,29.4,4.6,29.8,5.2,29.7L5.2,29.7z"/>
		<path id="Path_293" class="st0" d="M0,32.4c0,1.8,0,1.8,0.2,1.8h21.3c1.1,0,1.1,0,1.1-0.2V20.9c0-0.6-0.4-1-1-1h-0.7
			c-0.6,0-1,0.4-1,1v10c0,0.3-0.2,0.6-0.5,0.6h-16c-0.3,0-0.6-0.3-0.6-0.6l0,0v-10c0-0.6-0.4-1-1-1H1.1c-0.6,0-1,0.4-1,1v11.5H0z"/>
		<path id="Path_294" class="st0" d="M5.3,24.8l11.8,1h0.1c0.5,0,0.9-0.3,1-0.8v-1.3c0-0.5-0.3-0.9-0.8-1L5.6,21.6
			c-0.5,0-0.9,0.3-1,0.8l-0.2,1.3c0,0.5,0.4,0.9,0.9,1V24.8z"/>
		<path id="Path_295" class="st0" d="M23.7,13c0.1,0.4,0.5,0.8,0.9,0.8c0.1,0,0.1,0,0.2,0l1.3-0.2c0.5-0.1,0.9-0.6,0.8-1.1l-2-11.7
			c-0.1-0.5-0.6-0.9-1.2-0.8c0,0,0,0,0,0l-1.3,0.2c-0.5,0.1-0.9,0.6-0.8,1.1L23.7,13z"/>
		<path id="Path_296" class="st0" d="M8.3,12.1l10.2,6c0.4,0.2,1,0.1,1.3-0.3l0.7-1.1c0.3-0.5,0.2-1.1-0.3-1.4c0,0,0,0,0,0l-10.3-6
			c-0.4-0.2-1-0.1-1.3,0.3l-0.7,1.2C7.7,11.3,7.8,11.8,8.3,12.1L8.3,12.1z"/>
		<path id="Path_297" class="st0" d="M20.5,15c0.3,0.5,0.9,0.6,1.4,0.3c0,0,0,0,0,0l1-0.8c0.4-0.3,0.5-0.9,0.3-1.3l-6.7-9.8
			c-0.3-0.4-0.9-0.5-1.3-0.3l-1.1,0.8c-0.4,0.3-0.5,0.9-0.3,1.3L20.5,15z"/>
		<path id="Path_298" class="st0" d="M6,18.8l11.5,3c0.5,0.1,1-0.1,1.2-0.6l0.3-1.3c0.1-0.5-0.2-1.1-0.7-1.2l-11.4-3
			c-0.5-0.1-1,0.1-1.2,0.6l-0.3,1.3C5.3,18.1,5.5,18.6,6,18.8L6,18.8z"/>
	</g>
</g>
</svg>
