<?xml version="1.0" encoding="utf-8"?>
<!-- Generator: Adobe Illustrator 24.3.0, SVG Export Plug-In . SVG Version: 6.00 Build 0)  -->
<svg version="1.1" id="Warstwa_1" xmlns="http://www.w3.org/2000/svg" xmlns:xlink="http://www.w3.org/1999/xlink" x="0px" y="0px"
	 viewBox="0 0 37.8 32.9" style="enable-background:new 0 0 37.8 32.9;" xml:space="preserve">
<style type="text/css">
	.st0{fill:#5858A3;}
</style>
<path class="st0" d="M0.7,15.8L9.4,19l3.3,10.8c0.1,0.5,0.6,0.9,1.2,0.8c0.2,0,0.4-0.1,0.5-0.3l4.8-4c0.5-0.4,1.3-0.4,1.8,0l8.7,6.4
	c0.4,0.3,1.1,0.3,1.4-0.2c0.1-0.1,0.2-0.3,0.2-0.4l6.4-30.9c0.1-0.5-0.3-1.1-0.8-1.1c-0.2,0-0.3,0-0.5,0L0.7,13.8c-0.6,0-1,0.4-1,1
	S0.1,15.8,0.7,15.8z M12.2,17.3l17-10.5c0.2,0,0.3,0,0.4,0.2c0,0.1,0,0.2-0.1,0.3l-14,13c-0.5,0.5-0.8,1.1-0.9,1.8l-0.5,3.5
	c0,0.2-0.2,0.4-0.4,0.4c-0.2,0-0.4-0.2-0.4-0.4l-1.9-6.4c-0.2-0.8,0.1-1.6,0.8-2L12.2,17.3z"/>
</svg>
