<?xml version="1.0" encoding="utf-8"?>
<!-- Generator: Adobe Illustrator 24.3.0, SVG Export Plug-In . SVG Version: 6.00 Build 0)  -->
<svg version="1.1" id="Warstwa_1" xmlns="http://www.w3.org/2000/svg" xmlns:xlink="http://www.w3.org/1999/xlink" x="0px" y="0px"
	 viewBox="0 0 1922 448.1" style="enable-background:new 0 0 1922 448.1;" xml:space="preserve">
<style type="text/css">
	.st0{opacity:0.401;fill:#EFEEFF;enable-background:new    ;}
	.st1{opacity:0.217;fill:#B2BDC3;enable-background:new    ;}
	.st2{fill:#A19BFE;}
</style>
<g id="Group_23" transform="translate(0.158 -3034.104)">
	<path id="Path_290" class="st0" d="M151.8,3219.2c0,0,254.8-99.3,603.3,0s980.6-117.9,980.6-117.9s61.5-36.2,184.9-21.9
		c0.2,0.1-0.2,403.2,0,402.3l-796.5-13l-972.2,13.4L151.8,3219.2z"/>
	<path id="Path_299" class="st1" d="M-0.2,3177.2c0,0,254.8-99.3,603.3,0s980.6-117.9,980.6-117.9s214.7-36.3,338.1-21.9
		c0.2,0.1-0.2,403.2,0,402.3l-949.7-13l-972.2,13.4L-0.2,3177.2z"/>
	<path id="Path_289" class="st2" d="M0.3,3225.8c96.5-23,295.2-53.3,539.8,16.4c348.5,99.3,980.6-117.9,980.6-117.9
		s118.5-78.5,356.9,21c15.1,6.2,29.5,13.8,43.1,22.7c0.3,1-0.1,314.7,0,313.4c-0.4-0.4-1920.4,0.6-1920.4,0.6S0.4,3225.8,0.3,3225.8
		z"/>
</g>
</svg>
