<?xml version="1.0" encoding="utf-8"?>
<!-- Generator: Adobe Illustrator 24.3.0, SVG Export Plug-In . SVG Version: 6.00 Build 0)  -->
<svg version="1.1" id="Warstwa_1" xmlns="http://www.w3.org/2000/svg" xmlns:xlink="http://www.w3.org/1999/xlink" x="0px" y="0px"
	 viewBox="0 0 837.3 703.7" style="enable-background:new 0 0 837.3 703.7;" xml:space="preserve">
<style type="text/css">
	.st0{fill:#DFE5E8;}
</style>
<path class="st0" d="M0,0c0,0,147.8,100.8,67.5,300.3S620,377.5,620,377.5l-24.2,180.4l40.6,131.5l201-62.8V0H0z"/>
<path class="st0" d="M439.4,310.9c-45.1-1.6-88-16.1-129-32s-81.5-33.6-125.5-42c-28.3-5.4-60.7-6.2-83.4,9
	c-22,14.6-29,39.7-32.9,63.1c-2.8,17.6-4.5,36.1,3.3,52.6c5.5,11.4,15.2,21,21.9,32c23.3,38,6.8,85-18.5,122.2
	c-11.8,17.5-25.5,34.1-34.7,52.7s-13.3,39.8-5.3,58.8C43.2,646,62,660.2,82.5,670c41.6,20.1,90.5,26,138.3,29.2
	c105.7,7.2,212,4,318,1c39.2-0.3,78.3-3.1,117.1-8.4c21.4-3.4,43.5-8.8,59.1-21.6c19.6-15.6,24.5-43.4,11.4-64.7
	c-22.2-34.4-83.5-43-99-80c-8.6-20.3,0.2-43,12.6-61.9c26.6-40.5,71.2-76,73.6-122.3c1.6-31.8-19.9-63.6-53-78.6
	C625.8,247,577.6,249,552,275c-26.5,26.8-72.9,37.2-112.6,35.8V310.9z"/>
</svg>
